<?xml version="1.0" encoding="UTF-8"?>
<svg id="Layer_1" xmlns="http://www.w3.org/2000/svg" version="1.1" viewBox="0 0 1276 106.5">
  <!-- Generator: Adobe Illustrator 29.8.6, SVG Export Plug-In . SVG Version: 2.1.1 Build 1)  -->
  <defs>
    <style>
      .st0 {
        fill: #fff;
      }
    </style>
  </defs>
  <g id="Camada_1">
    <g id="Layer_11">
      <g>
        <path class="st0" d="M25.9,74.79h-7.93v29.58H0V23.28h25.19c11.61,0,24.91,6.09,24.91,25.47s-12.17,26.18-24.2,26.18h0s0-.14,0-.14ZM23.78,38.7h-5.8v21.23h5.8c5.09,0,9.06-3.96,9.06-10.9s-3.96-10.33-9.06-10.33Z"/>
        <path class="st0" d="M87.6,106.5c-19.25,0-31.14-17.12-31.14-42.88s11.61-42.46,31.14-42.46,31.14,16.84,31.14,42.46-11.89,42.88-31.14,42.88ZM87.6,38.85c-8.35,0-12.31,10.61-12.31,24.77s3.96,24.91,12.31,24.91,12.31-10.9,12.31-24.91-4.1-24.77-12.31-24.77h0Z"/>
        <path class="st0" d="M163.75,104.37l-10.9-32.27h-5.38v32.27h-17.69V23.28h26.04c15.71,0,24.91,8.21,24.91,24.34s-6.23,18.68-11.46,20.52l13.87,36.23h-19.39ZM153.27,38.7h-5.66v20.52h5.38c5.09,0,9.77-3.11,9.77-10.47s-5.09-10.05-9.34-10.05h-.15Z"/>
        <path class="st0" d="M216.68,38.85v65.53h-17.97V38.85h-14.86v-15.57h47.69v15.57h-14.86Z"/>
        <path class="st0" d="M272.44,104.37l-3.4-14.72h-18.26l-3.4,14.72h-18.26l19.67-81.09h23.07l19.53,81.09h-19.11.16ZM260.41,40.97h-.42l-6.93,34.53h13.87l-6.51-34.53h0Z"/>
        <path class="st0" d="M298.76,104.37V23.28h18.54v64.11h21.65v16.98s-40.19,0-40.19,0Z"/>
        <path class="st0" d="M366.55,104.37h-17.41V23.28h17.55c17.83,0,29.3,14.01,29.3,40.62s-11.61,40.48-29.44,40.48h0ZM366.55,30.35h-9.34v67.08h9.34c12.31,0,21.65-10.9,21.65-33.4s-9.34-33.68-21.65-33.68Z"/>
        <path class="st0" d="M411.13,104.37V23.28h32.69v7.08h-24.91v28.45h23.21v6.79h-23.21v31.42h26.04v7.22h-33.82v.14h0Z"/>
        <path class="st0" d="M479.77,104.37h-22.79V23.28h22.79c23.21,0,33.68,15.85,33.68,40.76s-10.47,40.33-33.68,40.33h0ZM479.92,39.41h-4.53v48.97h4.53c8.77,0,15-8.63,15-24.2s-6.23-24.77-15-24.77h0Z"/>
        <path class="st0" d="M557.75,104.37l-3.26-14.72h-18.26l-3.26,14.72h-18.26l19.67-81.09h23.07l19.53,81.09h-19.25.02ZM545.58,40.97h-.42l-6.79,34.53h13.87l-6.51-34.53h-.15Z"/>
        <path class="st0" d="M606.72,104.37h-22.79V23.28h22.79c23.21,0,33.68,15.85,33.68,40.76s-10.47,40.33-33.68,40.33ZM607.01,39.41h-4.53v48.97h4.53c8.77,0,15-8.63,15-24.2s-6.23-24.77-15-24.77h0Z"/>
        <path class="st0" d="M679.33,106.5c-19.25,0-31.14-17.12-31.14-42.88s11.61-42.46,31.14-42.46,31.14,16.84,31.14,42.46-11.89,42.88-31.14,42.88ZM679.33,38.85c-8.35,0-12.31,10.61-12.31,24.77s3.96,24.91,12.31,24.91,12.31-10.9,12.31-24.91-4.1-24.77-12.31-24.77h0Z"/>
        <path class="st0" d="M755.04,42.81c-2.69-3.26-6.65-5.09-10.47-5.09s-8.07,2.41-8.07,8.35,3.4,7.22,9.91,10.47c7.5,3.68,17.12,9.48,17.12,23.63s-11.89,26.32-25.19,26.32-18.26-4.25-23.07-9.2l9.34-13.73c3.4,3.68,8.35,6.09,13.02,6.09s7.93-3.11,7.93-8.21-3.82-7.93-10.76-11.32c-8.77-4.39-16.13-9.91-16.13-23.35s13.16-25.62,24.91-25.62,15.99,3.11,20.66,8.07l-9.48,13.44h0l.28.14h0Z"/>
      </g>
      <path class="st0" d="M971.58,23.14l-19.25,68.92h-.42l-19.53-68.92h-12.03v81.66h7.64V33.89h.28l19.96,70.9h7.5l19.96-70.9h.28v70.9h7.93V23.14h-12.45.14-.01ZM1002.71,23.14v81.66h8.07V23.14h-8.07ZM1060.6,63.9c1.7-.85,3.26-2.26,4.67-3.96,1.42-1.7,2.55-3.82,3.54-6.23.85-2.55,1.27-5.52,1.27-8.92s-.57-7.36-1.84-10.19-2.83-4.95-4.67-6.65c-1.98-1.7-4.25-2.83-6.65-3.68-2.55-.71-5.09-1.13-7.78-1.13h-19.53v81.66h7.93v-37.79h10.47l14.72,37.79h8.63l-15.85-39.2c1.7-.28,3.4-.85,5.09-1.7M1037.39,60.64v-30.57h10.33c1.84,0,3.68.28,5.38.71s3.26,1.27,4.67,2.41c1.42,1.13,2.41,2.69,3.26,4.67s1.13,4.39,1.13,7.22c0,4.95-1.27,8.63-3.68,11.46-2.55,2.69-5.94,4.1-10.33,4.1h-10.76ZM1096.54,23.14l-20.8,81.66h8.21l5.24-20.38h25.19l4.95,20.38h8.49l-20.1-81.66h-11.18,0ZM1102.06,30.35l11.04,47.55h-22.79l11.32-47.55h.43ZM1176.51,23.14v67.93h-.28l-28.31-67.93h-10.05v81.66h7.64V36.86h.28l28.45,67.93h9.62V23.14h-7.36.01ZM1232.55,30.07v-6.93h-39.34v6.93h15.71v74.73h7.93V30.07h15.85-.15ZM1276,97.44h-26.18v-31.7h23.35v-6.93h-23.35v-28.59h25.05v-7.08h-32.83v81.66h33.97v-7.22h0v-.14h-.01ZM823.68,43.37c3.54,16.28-8.49,24.48-31.42,21.8,8.92,3.68,38.5,14.01,61.71-.85,19.96-12.88,27.6-15.43,41.75-15-8.77-8.77-20.1-8.92-26.89-8.77-4.67,0-9.91-.57-14.86-3.54-6.51-4.25-17.97-13.44-22.22-16.28C791.98-5.74,753.49-.5,744.29,2.61c36.94,0,75.72,24.63,79.25,40.9M855.24,35.31c3.54,2.26,7.78,3.26,13.02,3.26h1.7c16.28-17.27,38.35-27.46,56.33-28.59-33.82-2.55-61.14,12.74-74.02,23.21,1.13.85,2.12,1.56,3.11,2.12"/>
    </g>
  </g>
</svg>